<?xml version="1.0" standalone="no"?>
<!DOCTYPE svg PUBLIC "-//W3C//DTD SVG 20010904//EN"
 "http://www.w3.org/TR/2001/REC-SVG-20010904/DTD/svg10.dtd">
<svg version="1.0" xmlns="http://www.w3.org/2000/svg"
 width="178.000000pt" height="178.000000pt" viewBox="0 0 178.000000 178.000000"
 preserveAspectRatio="xMidYMid meet">
<metadata>
Created by potrace 1.11, written by Peter Selinger 2001-2013
</metadata>
<g transform="translate(0.000000,178.000000) scale(0.100000,-0.100000)"
fill="#000000" stroke="none">
<path d="M905 1714 c-11 -7 -50 -20 -87 -27 -36 -8 -78 -23 -92 -35 -15 -11
-44 -23 -66 -27 -42 -7 -58 -19 -40 -30 8 -5 7 -11 -1 -21 -10 -12 -8 -19 9
-36 21 -21 22 -21 42 -3 19 17 21 17 40 0 11 -10 20 -28 20 -40 l0 -23 -37 19
c-25 13 -48 17 -66 13 -18 -4 -37 0 -53 11 -32 20 -37 17 -21 -15 11 -21 21
-25 65 -28 39 -2 52 -7 52 -19 0 -9 -6 -13 -15 -9 -10 3 -15 -1 -15 -13 0 -11
-3 -27 -7 -36 -5 -15 0 -17 48 -10 81 10 124 23 153 46 29 23 34 15 10 -19
-19 -27 -45 -38 -138 -58 -83 -17 -170 -55 -143 -61 14 -4 16 -8 6 -19 -18
-22 -33 -17 -73 22 -35 34 -37 40 -31 80 10 68 -25 131 -84 149 -23 7 -23 7
-7 -16 23 -34 20 -38 -24 -32 -21 3 -47 2 -57 -2 -15 -6 -12 -9 16 -18 42 -15
57 -43 18 -33 -14 3 -38 1 -54 -5 l-27 -10 42 -19 c35 -16 43 -24 40 -42 -2
-19 -9 -23 -35 -22 -18 1 -33 -2 -33 -6 0 -13 51 -46 91 -59 39 -13 54 -45 42
-91 -5 -20 -4 -21 16 -11 20 11 21 9 21 -23 0 -30 3 -33 21 -29 19 5 21 3 16
-18 -8 -32 4 -51 23 -39 21 13 40 12 40 -2 0 -6 10 -22 21 -34 l22 -23 -26
-44 c-56 -95 -110 -121 -199 -97 -43 12 -71 2 -89 -32 -10 -19 -9 -20 13 -15
41 11 52 -5 32 -46 -9 -19 -14 -43 -10 -53 6 -16 8 -16 22 4 19 27 50 30 39 5
-15 -35 -17 -61 -6 -67 6 -4 11 -3 11 3 0 6 12 18 26 28 25 16 27 16 39 -1 7
-9 11 -26 8 -37 -5 -18 -3 -19 20 -8 27 12 47 47 47 83 0 30 28 41 50 21 20
-18 30 -11 30 22 0 26 17 31 26 8 9 -21 24 -8 24 21 0 28 15 32 28 7 9 -14 10
-14 16 5 4 12 5 31 1 41 -3 11 -1 22 5 26 7 4 20 21 31 39 l19 31 0 -29 c0
-16 -7 -38 -16 -48 -14 -15 -15 -20 -4 -34 18 -20 90 -56 160 -79 l55 -18 -55
-19 c-75 -25 -116 -56 -142 -105 l-23 -43 56 -57 c69 -71 83 -96 69 -122 -25
-47 -81 -64 -123 -37 -36 23 -102 24 -133 2 -18 -14 -18 -15 11 -26 l30 -12
-30 -12 c-17 -7 -36 -20 -43 -29 -12 -14 -10 -17 15 -22 56 -13 58 -15 35 -31
-12 -8 -27 -24 -32 -35 -11 -19 -9 -19 54 -13 70 7 76 3 50 -34 -14 -21 -14
-22 11 -22 38 0 62 15 95 62 18 24 30 34 30 25 0 -27 19 -20 39 14 17 27 20
29 29 14 10 -19 32 -12 32 9 0 8 8 13 17 12 13 -1 22 12 31 44 8 25 21 59 29
76 15 29 14 32 -15 75 -17 24 -34 56 -38 71 -6 27 -5 27 27 18 19 -6 47 -10
63 -10 19 0 42 -12 68 -35 21 -20 63 -48 94 -63 61 -30 62 -33 23 -121 l-19
-43 -52 6 c-34 3 -64 1 -83 -8 l-30 -13 32 -7 c45 -10 49 -22 14 -41 -28 -14
-61 -50 -61 -67 0 -4 12 -3 26 2 30 12 74 13 74 3 0 -5 -7 -17 -15 -27 -8 -11
-15 -30 -15 -43 l0 -23 38 25 c20 13 48 26 62 27 20 2 25 -2 30 -25 l5 -29 21
24 c32 34 54 83 54 118 0 33 23 41 38 13 9 -14 10 -14 16 5 4 11 4 32 0 46 -6
26 8 37 21 16 3 -5 11 -10 17 -10 10 0 6 27 -9 66 -5 14 -2 16 21 10 25 -6 27
-5 21 16 -4 13 -13 32 -20 43 -8 14 -9 27 -2 42 15 35 1 72 -31 78 -57 12 -77
29 -80 68 -4 46 24 147 41 147 29 0 90 23 108 41 24 24 24 65 -1 130 -11 28
-18 60 -14 71 7 23 47 40 71 31 16 -6 16 -5 4 10 -17 21 -60 22 -89 1 -22 -15
-22 -14 -22 21 0 31 5 38 30 49 17 7 27 15 23 19 -12 13 -68 7 -91 -9 -21 -15
-22 -14 -22 13 0 40 17 53 70 53 l45 1 -24 19 c-14 13 -38 20 -63 20 l-39 0
17 30 c10 16 31 35 47 41 39 16 93 -9 112 -54 l14 -32 1 38 c0 47 -43 97 -84
97 -31 0 -34 15 -7 30 45 24 86 5 119 -55 11 -18 11 -18 12 8 0 44 -26 84 -65
98 -29 11 -34 17 -28 34 23 72 22 108 -2 146 -46 72 -205 64 -245 -12 -7 -12
-16 -62 -20 -111 -6 -73 -11 -93 -30 -113 l-23 -25 27 0 c30 0 86 48 86 73 0
8 12 18 28 22 60 15 100 60 42 49 -32 -7 -60 9 -60 33 0 8 11 25 25 38 43 44
125 25 125 -29 0 -23 -24 -70 -68 -131 -108 -152 -117 -279 -27 -389 54 -67
65 -88 65 -125 0 -30 -22 -61 -43 -61 -7 0 -22 16 -34 34 -28 44 -75 78 -138
101 -32 11 -67 35 -97 66 -54 55 -61 74 -22 65 23 -6 25 -5 19 16 -4 13 -15
38 -26 56 l-18 32 34 0 c33 0 33 1 25 31 -5 17 -14 37 -20 45 -16 18 -4 34 25
34 24 0 24 0 9 42 -8 23 -19 47 -25 55 -9 10 -6 13 15 13 26 0 26 0 11 35 -8
19 -21 50 -29 69 -11 25 -25 37 -51 46 l-37 12 20 22 c27 28 38 72 22 90 -6 8
-24 18 -40 21 -20 4 -30 13 -32 30 -3 20 -5 21 -23 9z m-86 -97 c-2 -1 -14
-10 -25 -20 -21 -17 -22 -17 -27 3 -4 17 0 20 26 20 17 0 28 -1 26 -3z m38
-89 c-3 -8 -6 -5 -6 6 -1 11 2 17 5 13 3 -3 4 -12 1 -19z"/>
</g>
</svg>
